<svg width="688" height="375" viewBox="0 0 688 375" fill="none" xmlns="http://www.w3.org/2000/svg">
<path d="M621.934 1.71411C621.4 2.11411 621 33.0475 621 70.2474V137.981L612.467 134.114C597.934 127.447 585.667 124.647 568.067 123.847C543.534 122.647 525.667 126.381 505 136.781C472.467 153.181 448.467 182.514 438.733 218.114C436.867 224.914 436.333 231.714 436.333 250.114C436.467 271.981 436.733 274.114 440.2 284.781C454.6 328.381 487.267 359.847 529.934 371.047C556.467 377.847 590.467 374.914 612.734 363.581L621 359.447V364.781V370.114H654.334H687.667V185.447V0.780762H655.267C637.4 0.780762 622.334 1.18079 621.934 1.71411ZM575 189.581C585 192.114 593.133 196.781 601.934 205.181C629.267 231.047 629.133 267.981 601.667 293.981C580.867 313.714 549.4 315.714 526.467 298.781C495.933 276.381 492.733 232.914 519.534 206.247C535.534 190.381 555.4 184.381 575 189.581Z" fill="black"/>
<path d="M39.2669 100.381C38.8669 101.047 30.0669 129.314 19.6669 163.447C9.26687 197.581 0.466869 225.847 0.0668687 226.514C-0.199798 227.047 17.9335 227.314 40.4669 227.181L81.4002 226.781L100.467 166.114C111 132.781 119.8 104.114 120.334 102.381L121 99.4473H80.4669C58.0669 99.4473 39.5335 99.8473 39.2669 100.381Z" fill="black"/>
<path d="M247.4 124.781C199.8 133.314 160.467 168.647 146.867 215.047C142.6 229.714 141.134 253.047 143.534 268.247C156.6 349.181 243 396.914 318.467 364.781C323.667 362.647 328.2 360.781 328.467 360.781C328.734 360.781 329 362.914 329 365.447V370.114H361.667H394.334V248.781V127.447H361.667H329V132.781C329 135.714 328.734 138.114 328.334 138.114C327.934 138.114 324.6 136.647 321 134.781C307 127.714 292.467 124.514 272.334 123.981C262.067 123.847 250.867 124.114 247.4 124.781ZM283 189.447C299.534 193.714 316.467 208.247 324.067 224.514C329.267 235.714 330.467 252.647 327 265.581C322.467 282.247 309.4 297.581 293.267 305.181C281 310.914 264.6 311.847 251.8 307.447C207.667 292.647 194.334 241.447 225.667 207.581C241 191.047 262.734 184.247 283 189.447Z" fill="black"/>
</svg>
